<svg xmlns="http://www.w3.org/2000/svg" xmlns:xlink="http://www.w3.org/1999/xlink" width="432" zoomAndPan="magnify" viewBox="0 0 324 183.000001" height="244" preserveAspectRatio="xMidYMid meet" version="1.0"><defs><clipPath id="dcd2a23dd5"><path d="M 153.066406 47.332031 L 198.785156 47.332031 L 198.785156 52.859375 L 153.066406 52.859375 Z M 153.066406 47.332031 " clip-rule="nonzero"/></clipPath><clipPath id="17091ae8e1"><path d="M 175.921875 47.429688 L 175.851562 47.429688 C 163.96875 47.449219 155.792969 48.375 153.085938 49.917969 C 155.800781 51.457031 163.96875 52.742188 175.851562 52.8125 L 175.992188 52.8125 C 187.878906 52.742188 196.050781 51.449219 198.757812 49.917969 C 196.050781 48.375 187.878906 47.449219 175.992188 47.429688 L 175.921875 47.429688 " clip-rule="nonzero"/></clipPath><clipPath id="b930b5404f"><path d="M 0.0664062 0.332031 L 45.757812 0.332031 L 45.757812 5.859375 L 0.0664062 5.859375 Z M 0.0664062 0.332031 " clip-rule="nonzero"/></clipPath><clipPath id="d9adc2beb2"><path d="M 22.921875 0.429688 L 22.851562 0.429688 C 10.96875 0.449219 2.792969 1.375 0.0859375 2.917969 C 2.800781 4.457031 10.96875 5.742188 22.851562 5.8125 L 22.992188 5.8125 C 34.878906 5.742188 43.050781 4.449219 45.757812 2.917969 C 43.050781 1.375 34.878906 0.449219 22.992188 0.429688 L 22.921875 0.429688 " clip-rule="nonzero"/></clipPath><clipPath id="9356311b2e"><rect x="0" width="46" y="0" height="6"/></clipPath><clipPath id="6356af338c"><path d="M 148.882812 29.402344 L 202.96875 29.402344 L 202.96875 48.378906 L 148.882812 48.378906 Z M 148.882812 29.402344 " clip-rule="nonzero"/></clipPath><clipPath id="41be92a786"><path d="M 202.578125 35.773438 C 200.785156 36.957031 198.71875 39.285156 194.96875 38.667969 C 190.464844 37.921875 190.671875 30.980469 190.671875 30.980469 C 190.671875 30.980469 189.011719 37.15625 182.84375 36.261719 C 176.507812 35.335938 176.171875 29.429688 175.992188 29.429688 L 175.851562 29.429688 C 175.671875 29.429688 175.375 35.574219 169 36.261719 C 163.730469 36.828125 161.171875 30.980469 161.171875 30.980469 C 161.171875 30.980469 161.382812 37.921875 156.867188 38.667969 C 153.128906 39.285156 151.046875 36.957031 149.257812 35.773438 C 149.117188 35.875 149.117188 35.875 148.988281 35.972656 C 150.074219 37.277344 151 39.265625 151.785156 41.484375 C 151.785156 41.484375 151.785156 41.492188 151.785156 41.492188 C 151.84375 41.632812 151.894531 41.761719 151.921875 41.851562 C 151.964844 41.960938 151.992188 42.078125 152.023438 42.21875 C 152.757812 44.515625 153.027344 46.683594 152.867188 48.304688 C 155.992188 46.894531 165.082031 45.859375 175.832031 45.859375 L 175.972656 45.859375 C 186.722656 45.871094 195.8125 46.894531 198.9375 48.304688 C 198.777344 46.695312 199.054688 44.515625 199.78125 42.21875 C 199.8125 42.078125 199.839844 41.960938 199.882812 41.851562 C 199.910156 41.761719 199.960938 41.640625 200.019531 41.492188 C 200.019531 41.492188 200.019531 41.484375 200.019531 41.484375 C 200.804688 39.265625 201.792969 37.316406 202.875 36.011719 C 202.746094 35.914062 202.6875 35.875 202.546875 35.773438 " clip-rule="nonzero"/></clipPath><clipPath id="e1ad2e4178"><path d="M 0.882812 0.402344 L 54.96875 0.402344 L 54.96875 19.378906 L 0.882812 19.378906 Z M 0.882812 0.402344 " clip-rule="nonzero"/></clipPath><clipPath id="6cb1a98fe0"><path d="M 54.578125 6.773438 C 52.785156 7.957031 50.71875 10.285156 46.96875 9.667969 C 42.464844 8.921875 42.671875 1.980469 42.671875 1.980469 C 42.671875 1.980469 41.011719 8.15625 34.84375 7.261719 C 28.507812 6.335938 28.171875 0.429688 27.992188 0.429688 L 27.851562 0.429688 C 27.671875 0.429688 27.375 6.574219 21 7.261719 C 15.730469 7.828125 13.171875 1.980469 13.171875 1.980469 C 13.171875 1.980469 13.382812 8.921875 8.867188 9.667969 C 5.128906 10.285156 3.046875 7.957031 1.257812 6.773438 C 1.117188 6.875 1.117188 6.875 0.988281 6.972656 C 2.074219 8.277344 3 10.265625 3.785156 12.484375 C 3.785156 12.484375 3.785156 12.492188 3.785156 12.492188 C 3.84375 12.632812 3.894531 12.761719 3.921875 12.851562 C 3.964844 12.960938 3.992188 13.078125 4.023438 13.21875 C 4.757812 15.515625 5.027344 17.683594 4.867188 19.304688 C 7.992188 17.894531 17.082031 16.859375 27.832031 16.859375 L 27.972656 16.859375 C 38.722656 16.871094 47.8125 17.894531 50.9375 19.304688 C 50.777344 17.695312 51.054688 15.515625 51.78125 13.21875 C 51.8125 13.078125 51.839844 12.960938 51.882812 12.851562 C 51.910156 12.761719 51.960938 12.640625 52.019531 12.492188 C 52.019531 12.492188 52.019531 12.484375 52.019531 12.484375 C 52.804688 10.265625 53.792969 8.316406 54.875 7.011719 C 54.746094 6.914062 54.6875 6.875 54.546875 6.773438 " clip-rule="nonzero"/></clipPath><clipPath id="cc55d7d967"><rect x="0" width="55" y="0" height="20"/></clipPath><clipPath id="25353982d8"><path d="M 163.074219 32.691406 L 174.578125 32.691406 L 174.578125 36.425781 L 163.074219 36.425781 Z M 163.074219 32.691406 " clip-rule="nonzero"/></clipPath><clipPath id="ac60b7bcc8"><path d="M 173.84375 33.644531 C 172.691406 34.3125 171.007812 34.410156 169.894531 33.765625 C 169.398438 33.476562 169.011719 33.128906 168.742188 32.75 C 168.742188 32.730469 168.742188 32.722656 168.730469 32.703125 C 168.730469 32.710938 168.722656 32.710938 168.722656 32.722656 C 168.722656 32.710938 168.710938 32.710938 168.710938 32.703125 C 168.710938 32.710938 168.710938 32.730469 168.722656 32.75 C 168.574219 33.167969 168.273438 33.566406 167.875 33.925781 C 166.960938 34.738281 165.28125 34.910156 163.96875 34.441406 C 163.648438 34.332031 163.382812 34.144531 163.164062 33.925781 C 163.371094 34.75 163.578125 35.574219 163.777344 36.402344 C 163.859375 36.132812 164.015625 35.875 164.257812 35.683594 C 165.230469 34.859375 166.972656 34.609375 168.085938 35.238281 C 168.582031 35.515625 168.960938 35.855469 169.210938 36.242188 C 169.210938 36.261719 169.210938 36.273438 169.21875 36.292969 C 169.21875 36.28125 169.230469 36.273438 169.230469 36.261719 C 169.230469 36.273438 169.238281 36.273438 169.238281 36.28125 C 169.238281 36.261719 169.238281 36.25 169.230469 36.230469 C 169.367188 35.824219 169.648438 35.425781 170.054688 35.070312 C 170.96875 34.273438 172.730469 34.234375 173.902344 34.890625 C 174.183594 35.039062 174.410156 35.265625 174.558594 35.515625 C 174.539062 34.671875 174.511719 33.835938 174.492188 32.988281 C 174.339844 33.238281 174.132812 33.46875 173.855469 33.625 " clip-rule="nonzero"/></clipPath><clipPath id="7f02ade13e"><path d="M 0.0742188 0.703125 L 11.578125 0.703125 L 11.578125 4.425781 L 0.0742188 4.425781 Z M 0.0742188 0.703125 " clip-rule="nonzero"/></clipPath><clipPath id="5c4277a20b"><path d="M 10.84375 1.644531 C 9.691406 2.3125 8.007812 2.410156 6.894531 1.765625 C 6.398438 1.476562 6.011719 1.128906 5.742188 0.75 C 5.742188 0.730469 5.742188 0.722656 5.730469 0.703125 C 5.730469 0.710938 5.722656 0.710938 5.722656 0.722656 C 5.722656 0.710938 5.710938 0.710938 5.710938 0.703125 C 5.710938 0.710938 5.710938 0.730469 5.722656 0.75 C 5.574219 1.167969 5.273438 1.566406 4.875 1.925781 C 3.960938 2.738281 2.28125 2.910156 0.96875 2.441406 C 0.648438 2.332031 0.382812 2.144531 0.164062 1.925781 C 0.371094 2.75 0.578125 3.574219 0.777344 4.402344 C 0.859375 4.132812 1.015625 3.875 1.257812 3.683594 C 2.230469 2.859375 3.972656 2.609375 5.085938 3.238281 C 5.582031 3.515625 5.960938 3.855469 6.210938 4.242188 C 6.210938 4.261719 6.210938 4.273438 6.21875 4.292969 C 6.21875 4.28125 6.230469 4.273438 6.230469 4.261719 C 6.230469 4.273438 6.238281 4.273438 6.238281 4.28125 C 6.238281 4.261719 6.238281 4.25 6.230469 4.230469 C 6.367188 3.824219 6.648438 3.425781 7.054688 3.070312 C 7.96875 2.273438 9.730469 2.234375 10.902344 2.890625 C 11.183594 3.039062 11.410156 3.265625 11.558594 3.515625 C 11.539062 2.671875 11.511719 1.835938 11.492188 0.988281 C 11.339844 1.238281 11.132812 1.46875 10.855469 1.625 " clip-rule="nonzero"/></clipPath><clipPath id="04450389b2"><rect x="0" width="12" y="0" height="5"/></clipPath><clipPath id="03879c0a8c"><path d="M 151.570312 34.484375 L 161.582031 34.484375 L 161.582031 40.160156 L 151.570312 40.160156 Z M 151.570312 34.484375 " clip-rule="nonzero"/></clipPath><clipPath id="944fb7132b"><path d="M 160.496094 35.265625 C 159.710938 36.121094 158.347656 36.589844 157.253906 36.261719 C 156.777344 36.113281 156.359375 35.894531 156.050781 35.605469 C 156.042969 35.59375 156.042969 35.574219 156.03125 35.566406 C 156.03125 35.574219 156.03125 35.574219 156.03125 35.585938 C 156.019531 35.585938 156.019531 35.574219 156.011719 35.566406 C 156.019531 35.574219 156.019531 35.59375 156.03125 35.605469 C 156.011719 36.011719 155.863281 36.429688 155.625 36.847656 C 155.066406 37.785156 153.714844 38.320312 152.5 38.210938 C 152.210938 38.179688 151.933594 38.082031 151.703125 37.933594 C 152.082031 38.628906 152.460938 39.324219 152.839844 40.019531 C 152.839844 39.761719 152.90625 39.496094 153.058594 39.265625 C 153.664062 38.300781 155.046875 37.675781 156.128906 37.992188 C 156.609375 38.121094 157.015625 38.351562 157.3125 38.640625 C 157.324219 38.648438 157.324219 38.667969 157.335938 38.679688 L 157.335938 38.660156 C 157.34375 38.667969 157.34375 38.667969 157.355469 38.679688 C 157.34375 38.667969 157.34375 38.648438 157.335938 38.640625 C 157.34375 38.242188 157.472656 37.8125 157.722656 37.414062 C 158.277344 36.492188 159.730469 36.074219 160.863281 36.390625 C 161.132812 36.460938 161.382812 36.621094 161.570312 36.808594 C 161.34375 36.0625 161.113281 35.308594 160.875 34.5625 C 160.816406 34.820312 160.695312 35.070312 160.507812 35.277344 " clip-rule="nonzero"/></clipPath><clipPath id="581724877a"><path d="M 0.570312 0.484375 L 10.582031 0.484375 L 10.582031 6.101562 L 0.570312 6.101562 Z M 0.570312 0.484375 " clip-rule="nonzero"/></clipPath><clipPath id="bdfa5211b1"><path d="M 9.496094 1.265625 C 8.710938 2.121094 7.347656 2.589844 6.253906 2.261719 C 5.777344 2.113281 5.359375 1.894531 5.050781 1.605469 C 5.042969 1.59375 5.042969 1.574219 5.03125 1.566406 C 5.03125 1.574219 5.03125 1.574219 5.03125 1.585938 C 5.019531 1.585938 5.019531 1.574219 5.011719 1.566406 C 5.019531 1.574219 5.019531 1.59375 5.03125 1.605469 C 5.011719 2.011719 4.863281 2.429688 4.625 2.847656 C 4.066406 3.785156 2.714844 4.320312 1.5 4.210938 C 1.210938 4.179688 0.933594 4.082031 0.703125 3.933594 C 1.082031 4.628906 1.460938 5.324219 1.839844 6.019531 C 1.839844 5.761719 1.90625 5.496094 2.058594 5.265625 C 2.664062 4.300781 4.046875 3.675781 5.128906 3.992188 C 5.609375 4.121094 6.015625 4.351562 6.3125 4.640625 C 6.324219 4.648438 6.324219 4.667969 6.335938 4.679688 L 6.335938 4.660156 C 6.34375 4.667969 6.34375 4.667969 6.355469 4.679688 C 6.34375 4.667969 6.34375 4.648438 6.335938 4.640625 C 6.34375 4.242188 6.472656 3.8125 6.722656 3.414062 C 7.277344 2.492188 8.730469 2.074219 9.863281 2.390625 C 10.132812 2.460938 10.382812 2.621094 10.570312 2.808594 C 10.34375 2.0625 10.113281 1.308594 9.875 0.5625 C 9.816406 0.820312 9.695312 1.070312 9.507812 1.277344 " clip-rule="nonzero"/></clipPath><clipPath id="454d22c01c"><rect x="0" width="11" y="0" height="7"/></clipPath><clipPath id="c14893a500"><path d="M 177.269531 32.691406 L 189.074219 32.691406 L 189.074219 36.574219 L 177.269531 36.574219 Z M 177.269531 32.691406 " clip-rule="nonzero"/></clipPath><clipPath id="5114d6041e"><path d="M 178 33.695312 C 179.183594 34.363281 180.914062 34.472656 182.070312 33.824219 C 182.574219 33.535156 182.984375 33.1875 183.253906 32.8125 C 183.253906 32.789062 183.253906 32.78125 183.261719 32.761719 C 183.261719 32.769531 183.273438 32.78125 183.273438 32.78125 C 183.28125 32.769531 183.28125 32.761719 183.292969 32.761719 C 183.292969 32.78125 183.28125 32.789062 183.28125 32.8125 C 183.441406 33.226562 183.738281 33.625 184.15625 33.996094 C 185.101562 34.808594 186.832031 34.980469 188.183594 34.519531 C 188.511719 34.410156 188.792969 34.234375 189.011719 34.003906 C 188.800781 34.828125 188.59375 35.65625 188.382812 36.480469 C 188.292969 36.210938 188.136719 35.953125 187.898438 35.753906 C 186.890625 34.917969 185.101562 34.671875 183.957031 35.296875 C 183.453125 35.574219 183.054688 35.914062 182.804688 36.292969 C 182.804688 36.3125 182.804688 36.320312 182.792969 36.339844 C 182.792969 36.332031 182.785156 36.320312 182.785156 36.320312 C 182.773438 36.332031 182.773438 36.339844 182.765625 36.339844 C 182.765625 36.320312 182.765625 36.3125 182.773438 36.292969 C 182.636719 35.882812 182.347656 35.476562 181.929688 35.128906 C 180.984375 34.332031 179.175781 34.292969 177.972656 34.9375 C 177.683594 35.089844 177.453125 35.316406 177.296875 35.566406 C 177.316406 34.71875 177.34375 33.886719 177.363281 33.039062 C 177.515625 33.289062 177.742188 33.515625 178.019531 33.675781 " clip-rule="nonzero"/></clipPath><clipPath id="023e61fec8"><path d="M 0.277344 0.703125 L 12.074219 0.703125 L 12.074219 4.519531 L 0.277344 4.519531 Z M 0.277344 0.703125 " clip-rule="nonzero"/></clipPath><clipPath id="8d0e2e49f7"><path d="M 1 1.695312 C 2.183594 2.363281 3.914062 2.472656 5.070312 1.824219 C 5.574219 1.535156 5.984375 1.1875 6.253906 0.8125 C 6.253906 0.789062 6.253906 0.78125 6.261719 0.761719 C 6.261719 0.769531 6.273438 0.78125 6.273438 0.78125 C 6.28125 0.769531 6.28125 0.761719 6.292969 0.761719 C 6.292969 0.78125 6.28125 0.789062 6.28125 0.8125 C 6.441406 1.226562 6.738281 1.625 7.15625 1.996094 C 8.101562 2.808594 9.832031 2.980469 11.183594 2.519531 C 11.511719 2.410156 11.792969 2.234375 12.011719 2.003906 C 11.800781 2.828125 11.59375 3.65625 11.382812 4.480469 C 11.292969 4.210938 11.136719 3.953125 10.898438 3.753906 C 9.890625 2.917969 8.101562 2.671875 6.957031 3.296875 C 6.453125 3.574219 6.054688 3.914062 5.804688 4.292969 C 5.804688 4.3125 5.804688 4.320312 5.792969 4.339844 C 5.792969 4.332031 5.785156 4.320312 5.785156 4.320312 C 5.773438 4.332031 5.773438 4.339844 5.765625 4.339844 C 5.765625 4.320312 5.765625 4.3125 5.773438 4.292969 C 5.636719 3.882812 5.347656 3.476562 4.929688 3.128906 C 3.984375 2.332031 2.175781 2.292969 0.972656 2.9375 C 0.683594 3.089844 0.453125 3.316406 0.296875 3.566406 C 0.316406 2.71875 0.34375 1.886719 0.363281 1.039062 C 0.515625 1.289062 0.742188 1.515625 1.019531 1.675781 " clip-rule="nonzero"/></clipPath><clipPath id="62d2e6398f"><rect x="0" width="13" y="0" height="5"/></clipPath><clipPath id="4ea8de4f2b"><path d="M 190.269531 34.484375 L 200.277344 34.484375 L 200.277344 40.160156 L 190.269531 40.160156 Z M 190.269531 34.484375 " clip-rule="nonzero"/></clipPath><clipPath id="eeb1f7365a"><path d="M 191.359375 35.265625 C 192.144531 36.121094 193.507812 36.589844 194.601562 36.261719 C 195.078125 36.113281 195.496094 35.894531 195.804688 35.605469 C 195.8125 35.59375 195.8125 35.574219 195.824219 35.566406 C 195.824219 35.574219 195.824219 35.574219 195.824219 35.585938 C 195.832031 35.585938 195.832031 35.574219 195.84375 35.566406 C 195.832031 35.574219 195.832031 35.59375 195.824219 35.605469 C 195.851562 36.011719 195.992188 36.429688 196.230469 36.847656 C 196.789062 37.785156 198.140625 38.320312 199.355469 38.210938 C 199.644531 38.179688 199.921875 38.082031 200.148438 37.933594 C 199.773438 38.628906 199.394531 39.324219 199.015625 40.019531 C 199.015625 39.761719 198.945312 39.496094 198.796875 39.265625 C 198.191406 38.300781 196.808594 37.675781 195.734375 37.992188 C 195.257812 38.121094 194.847656 38.351562 194.550781 38.640625 C 194.539062 38.648438 194.539062 38.667969 194.53125 38.679688 L 194.53125 38.660156 C 194.519531 38.667969 194.519531 38.667969 194.511719 38.679688 C 194.519531 38.667969 194.519531 38.648438 194.53125 38.640625 C 194.519531 38.242188 194.390625 37.8125 194.144531 37.414062 C 193.585938 36.492188 192.132812 36.074219 191 36.390625 C 190.730469 36.460938 190.484375 36.621094 190.304688 36.808594 C 190.53125 36.0625 190.761719 35.308594 191 34.5625 C 191.058594 34.820312 191.179688 35.070312 191.367188 35.277344 " clip-rule="nonzero"/></clipPath><clipPath id="e3eab4f946"><path d="M 0.269531 0.484375 L 10.191406 0.484375 L 10.191406 6.101562 L 0.269531 6.101562 Z M 0.269531 0.484375 " clip-rule="nonzero"/></clipPath><clipPath id="e2e7a85436"><path d="M 1.359375 1.265625 C 2.144531 2.121094 3.507812 2.589844 4.601562 2.261719 C 5.078125 2.113281 5.496094 1.894531 5.804688 1.605469 C 5.8125 1.59375 5.8125 1.574219 5.824219 1.566406 C 5.824219 1.574219 5.824219 1.574219 5.824219 1.585938 C 5.832031 1.585938 5.832031 1.574219 5.84375 1.566406 C 5.832031 1.574219 5.832031 1.59375 5.824219 1.605469 C 5.851562 2.011719 5.992188 2.429688 6.230469 2.847656 C 6.789062 3.785156 8.140625 4.320312 9.355469 4.210938 C 9.644531 4.179688 9.921875 4.082031 10.148438 3.933594 C 9.773438 4.628906 9.394531 5.324219 9.015625 6.019531 C 9.015625 5.761719 8.945312 5.496094 8.796875 5.265625 C 8.191406 4.300781 6.808594 3.675781 5.734375 3.992188 C 5.257812 4.121094 4.847656 4.351562 4.550781 4.640625 C 4.539062 4.648438 4.539062 4.667969 4.53125 4.679688 L 4.53125 4.660156 C 4.519531 4.667969 4.519531 4.667969 4.511719 4.679688 C 4.519531 4.667969 4.519531 4.648438 4.53125 4.640625 C 4.519531 4.242188 4.390625 3.8125 4.144531 3.414062 C 3.585938 2.492188 2.132812 2.074219 1 2.390625 C 0.730469 2.460938 0.484375 2.621094 0.304688 2.808594 C 0.53125 2.0625 0.761719 1.308594 1 0.5625 C 1.058594 0.820312 1.179688 1.070312 1.367188 1.277344 " clip-rule="nonzero"/></clipPath><clipPath id="0f86df273c"><rect x="0" width="11" y="0" height="7"/></clipPath><clipPath id="9d5ba3e339"><path d="M 174.28125 24.472656 L 177.566406 24.472656 L 177.566406 31.347656 L 174.28125 31.347656 Z M 174.28125 24.472656 " clip-rule="nonzero"/></clipPath><clipPath id="aa34826cd2"><path d="M 175.894531 24.515625 L 174.378906 28.363281 C 174.6875 28.464844 174.988281 28.632812 175.257812 28.851562 C 175.914062 29.398438 176.140625 30.382812 175.59375 31.058594 C 175.554688 31.109375 175.605469 31.289062 175.5625 31.328125 L 176.507812 31.160156 C 176.5 31.148438 176.480469 31.128906 176.46875 31.121094 C 175.902344 30.464844 175.882812 29.507812 176.507812 28.941406 C 176.796875 28.683594 177.125 28.496094 177.484375 28.386719 C 177.472656 28.375 177.464844 28.375 177.445312 28.363281 Z M 175.894531 24.515625 " clip-rule="nonzero"/></clipPath><clipPath id="0cbd9bc52d"><path d="M 0.28125 0.472656 L 3.515625 0.472656 L 3.515625 7.347656 L 0.28125 7.347656 Z M 0.28125 0.472656 " clip-rule="nonzero"/></clipPath><clipPath id="ea584a53b1"><path d="M 1.894531 0.515625 L 0.378906 4.363281 C 0.6875 4.464844 0.988281 4.632812 1.257812 4.851562 C 1.914062 5.398438 2.140625 6.382812 1.59375 7.058594 C 1.554688 7.109375 1.605469 7.289062 1.5625 7.328125 L 2.507812 7.160156 C 2.5 7.148438 2.480469 7.128906 2.46875 7.121094 C 1.902344 6.464844 1.882812 5.507812 2.507812 4.941406 C 2.796875 4.683594 3.125 4.496094 3.484375 4.386719 C 3.472656 4.375 3.464844 4.375 3.445312 4.363281 Z M 1.894531 0.515625 " clip-rule="nonzero"/></clipPath><clipPath id="9724f87509"><rect x="0" width="4" y="0" height="8"/></clipPath><clipPath id="bdb9f412b5"><path d="M 159.488281 25.816406 L 162.328125 25.816406 L 162.328125 31.644531 L 159.488281 31.644531 Z M 159.488281 25.816406 " clip-rule="nonzero"/></clipPath><clipPath id="4971ab6542"><path d="M 161.171875 31.578125 C 161.253906 31.558594 161.332031 31.546875 161.421875 31.546875 C 161.441406 31.546875 161.472656 31.558594 161.5 31.558594 C 161.253906 31.089844 161.222656 30.523438 161.492188 30.066406 C 161.671875 29.746094 161.910156 29.488281 162.1875 29.300781 C 162.175781 29.300781 162.167969 29.289062 162.148438 29.289062 L 159.808594 25.917969 L 159.511719 29.996094 C 159.808594 30.027344 160.109375 30.117188 160.386719 30.265625 C 160.875 30.523438 161.144531 31.03125 161.171875 31.578125 " clip-rule="nonzero"/></clipPath><clipPath id="8f5d7b912b"><path d="M 0.488281 0.816406 L 3.238281 0.816406 L 3.238281 6.644531 L 0.488281 6.644531 Z M 0.488281 0.816406 " clip-rule="nonzero"/></clipPath><clipPath id="c0edf101dd"><path d="M 2.171875 6.578125 C 2.253906 6.558594 2.332031 6.546875 2.421875 6.546875 C 2.441406 6.546875 2.472656 6.558594 2.5 6.558594 C 2.253906 6.089844 2.222656 5.523438 2.492188 5.066406 C 2.671875 4.746094 2.910156 4.488281 3.1875 4.300781 C 3.175781 4.300781 3.167969 4.289062 3.148438 4.289062 L 0.808594 0.917969 L 0.511719 4.996094 C 0.808594 5.027344 1.109375 5.117188 1.386719 5.265625 C 1.875 5.523438 2.144531 6.03125 2.171875 6.578125 " clip-rule="nonzero"/></clipPath><clipPath id="5379140ef1"><rect x="0" width="4" y="0" height="7"/></clipPath><clipPath id="d0b6483078"><path d="M 145.746094 33 L 150.675781 33 L 150.675781 37.324219 L 145.746094 37.324219 Z M 145.746094 33 " clip-rule="nonzero"/></clipPath><clipPath id="2de7855f83"><path d="M 150.101562 37.15625 C 150.125 37.207031 150.125 37.246094 150.144531 37.296875 L 150.628906 36.730469 C 150.621094 36.730469 150.601562 36.730469 150.582031 36.730469 C 149.90625 36.601562 149.226562 36.03125 149.089844 35.40625 C 149.03125 35.117188 149.03125 34.847656 149.089844 34.628906 C 149.078125 34.628906 149.070312 34.628906 149.058594 34.640625 L 145.785156 33.03125 L 147.867188 36.023438 C 148.066406 35.945312 148.292969 35.902344 148.542969 35.914062 C 149.179688 35.945312 149.855469 36.5 150.101562 37.15625 " clip-rule="nonzero"/></clipPath><clipPath id="c02ca98d86"><path d="M 0.769531 0 L 5.675781 0 L 5.675781 4.324219 L 0.769531 4.324219 Z M 0.769531 0 " clip-rule="nonzero"/></clipPath><clipPath id="9c71a63517"><path d="M 5.101562 4.15625 C 5.125 4.207031 5.125 4.246094 5.144531 4.296875 L 5.628906 3.730469 C 5.621094 3.730469 5.601562 3.730469 5.582031 3.730469 C 4.90625 3.601562 4.226562 3.03125 4.089844 2.40625 C 4.03125 2.117188 4.03125 1.847656 4.089844 1.628906 C 4.078125 1.628906 4.070312 1.628906 4.058594 1.640625 L 0.785156 0.03125 L 2.867188 3.023438 C 3.066406 2.945312 3.292969 2.902344 3.542969 2.914062 C 4.179688 2.945312 4.855469 3.5 5.101562 4.15625 " clip-rule="nonzero"/></clipPath><clipPath id="dbe5454aca"><rect x="0" width="6" y="0" height="5"/></clipPath><clipPath id="8cd520764f"><path d="M 189.519531 26 L 192.359375 26 L 192.359375 32.839844 L 189.519531 32.839844 Z M 189.519531 26 " clip-rule="nonzero"/></clipPath><clipPath id="23a8c2faa0"><path d="M 190.722656 32.523438 C 190.742188 32.570312 190.34375 32.671875 190.375 32.730469 L 190.085938 32.492188 C 190.105469 32.484375 190.066406 32.503906 190.085938 32.492188 C 190.742188 31.996094 190.703125 30.941406 190.304688 30.253906 C 190.125 29.9375 189.886719 29.679688 189.609375 29.5 C 189.617188 29.5 189.628906 29.488281 189.648438 29.488281 L 191.976562 26.105469 L 192.28125 30.183594 C 191.984375 30.214844 191.6875 30.304688 191.40625 30.453125 C 190.703125 30.832031 190.433594 31.757812 190.722656 32.523438 " clip-rule="nonzero"/></clipPath><clipPath id="8f2e6c2877"><path d="M 0.519531 0.0195312 L 3.3125 0.0195312 L 3.3125 6.839844 L 0.519531 6.839844 Z M 0.519531 0.0195312 " clip-rule="nonzero"/></clipPath><clipPath id="8b8b24185a"><path d="M 1.722656 6.523438 C 1.742188 6.570312 1.34375 6.671875 1.375 6.730469 L 1.085938 6.492188 C 1.105469 6.484375 1.066406 6.503906 1.085938 6.492188 C 1.742188 5.996094 1.703125 4.941406 1.304688 4.253906 C 1.125 3.9375 0.886719 3.679688 0.609375 3.5 C 0.617188 3.5 0.628906 3.488281 0.648438 3.488281 L 2.976562 0.105469 L 3.28125 4.183594 C 2.984375 4.214844 2.6875 4.304688 2.40625 4.453125 C 1.703125 4.832031 1.433594 5.757812 1.722656 6.523438 " clip-rule="nonzero"/></clipPath><clipPath id="2c95173343"><rect x="0" width="4" y="0" height="7"/></clipPath><clipPath id="c196a3b009"><path d="M 201.175781 33 L 206.105469 33 L 206.105469 37.324219 L 201.175781 37.324219 Z M 201.175781 33 " clip-rule="nonzero"/></clipPath><clipPath id="5e9390c791"><path d="M 201.78125 37.15625 C 201.761719 37.207031 201.75 37.246094 201.742188 37.296875 L 201.242188 36.730469 C 201.265625 36.730469 201.273438 36.730469 201.292969 36.730469 C 201.96875 36.601562 202.644531 36.03125 202.785156 35.40625 C 202.84375 35.117188 202.84375 34.847656 202.785156 34.628906 C 202.796875 34.628906 202.804688 34.628906 202.816406 34.640625 L 206.097656 33.039062 L 204.019531 36.03125 C 203.820312 35.953125 203.589844 35.914062 203.34375 35.921875 C 202.707031 35.953125 202.03125 36.511719 201.78125 37.167969 " clip-rule="nonzero"/></clipPath><clipPath id="8d4f83c932"><path d="M 0.175781 0 L 5.105469 0 L 5.105469 4.324219 L 0.175781 4.324219 Z M 0.175781 0 " clip-rule="nonzero"/></clipPath><clipPath id="9eb5d9f072"><path d="M 0.78125 4.15625 C 0.761719 4.207031 0.75 4.246094 0.742188 4.296875 L 0.242188 3.730469 C 0.265625 3.730469 0.273438 3.730469 0.292969 3.730469 C 0.96875 3.601562 1.644531 3.03125 1.785156 2.40625 C 1.84375 2.117188 1.84375 1.847656 1.785156 1.628906 C 1.796875 1.628906 1.804688 1.628906 1.816406 1.640625 L 5.097656 0.0390625 L 3.019531 3.03125 C 2.820312 2.953125 2.589844 2.914062 2.34375 2.921875 C 1.707031 2.953125 1.03125 3.511719 0.78125 4.167969 " clip-rule="nonzero"/></clipPath><clipPath id="6b371c35ed"><rect x="0" width="6" y="0" height="5"/></clipPath><clipPath id="084399e47f"><path d="M 36.640625 64.613281 L 87.722656 64.613281 L 87.722656 128 L 36.640625 128 Z M 36.640625 64.613281 " clip-rule="nonzero"/></clipPath><clipPath id="711e95c795"><path d="M 49.539062 101.035156 C 50.550781 100.082031 51.804688 99.472656 53.296875 99.195312 C 54.789062 98.917969 56.191406 98.859375 57.503906 98.976562 C 60.90625 99.277344 63.890625 100.410156 66.457031 102.378906 C 69.023438 104.347656 71.171875 106.703125 72.902344 109.449219 L 59.742188 71.140625 Z M 75.136719 116.074219 C 74.480469 114.105469 73.597656 112.175781 72.503906 110.296875 C 71.410156 108.414062 70.097656 106.734375 68.605469 105.242188 C 67.113281 103.75 65.441406 102.507812 63.589844 101.523438 C 61.742188 100.539062 59.710938 99.921875 57.503906 99.683594 C 56.667969 99.625 55.804688 99.632812 54.910156 99.734375 C 54.015625 99.832031 53.148438 100.019531 52.3125 100.308594 C 51.476562 100.597656 50.710938 101.027344 50.027344 101.5625 C 49.339844 102.101562 48.851562 102.816406 48.554688 103.710938 L 44.167969 116.789062 C 42.972656 120.191406 42.386719 122.738281 42.425781 124.4375 C 42.46875 126.136719 43.0625 126.984375 44.257812 126.984375 L 44.257812 127.800781 L 36.648438 127.800781 L 36.648438 126.992188 C 37.007812 126.992188 37.425781 126.824219 37.902344 126.496094 C 38.378906 126.167969 38.894531 125.601562 39.472656 124.796875 C 40.050781 123.992188 40.648438 122.917969 41.3125 121.574219 C 41.980469 120.230469 42.65625 118.550781 43.371094 116.519531 L 59.296875 69.886719 L 57.59375 64.964844 L 64.398438 64.964844 L 81.492188 114.820312 C 82.089844 116.492188 82.667969 118.074219 83.234375 119.566406 C 83.800781 121.054688 84.339844 122.359375 84.84375 123.464844 C 85.351562 124.566406 85.808594 125.433594 86.226562 126.058594 C 86.644531 126.6875 87.035156 127.003906 87.390625 127.003906 L 87.390625 127.800781 L 76.929688 127.800781 L 76.929688 126.992188 C 77.226562 126.992188 77.335938 126.160156 77.246094 124.488281 C 77.15625 122.816406 76.691406 120.726562 75.855469 118.222656 Z M 75.136719 116.074219 " clip-rule="nonzero"/></clipPath><clipPath id="2b995e7183"><path d="M 0.640625 0.925781 L 51.527344 0.925781 L 51.527344 63.941406 L 0.640625 63.941406 Z M 0.640625 0.925781 " clip-rule="nonzero"/></clipPath><clipPath id="e20571167e"><path d="M 13.539062 37.035156 C 14.550781 36.082031 15.804688 35.472656 17.296875 35.195312 C 18.789062 34.917969 20.191406 34.859375 21.503906 34.976562 C 24.90625 35.277344 27.890625 36.410156 30.457031 38.378906 C 33.023438 40.347656 35.171875 42.703125 36.902344 45.449219 L 23.742188 7.140625 Z M 39.136719 52.074219 C 38.480469 50.105469 37.597656 48.175781 36.503906 46.296875 C 35.410156 44.414062 34.097656 42.734375 32.605469 41.242188 C 31.113281 39.75 29.441406 38.507812 27.589844 37.523438 C 25.742188 36.539062 23.710938 35.921875 21.503906 35.683594 C 20.667969 35.625 19.804688 35.632812 18.910156 35.734375 C 18.015625 35.832031 17.148438 36.019531 16.3125 36.308594 C 15.476562 36.597656 14.710938 37.027344 14.027344 37.5625 C 13.339844 38.101562 12.851562 38.816406 12.554688 39.710938 L 8.167969 52.789062 C 6.972656 56.191406 6.386719 58.738281 6.425781 60.4375 C 6.46875 62.136719 7.0625 62.984375 8.257812 62.984375 L 8.257812 63.800781 L 0.648438 63.800781 L 0.648438 62.992188 C 1.007812 62.992188 1.425781 62.824219 1.902344 62.496094 C 2.378906 62.167969 2.894531 61.601562 3.472656 60.796875 C 4.050781 59.992188 4.648438 58.917969 5.3125 57.574219 C 5.980469 56.230469 6.65625 54.550781 7.371094 52.519531 L 23.296875 5.886719 L 21.59375 0.964844 L 28.398438 0.964844 L 45.492188 50.820312 C 46.089844 52.492188 46.667969 54.074219 47.234375 55.566406 C 47.800781 57.054688 48.339844 58.359375 48.84375 59.464844 C 49.351562 60.566406 49.808594 61.433594 50.226562 62.058594 C 50.644531 62.6875 51.035156 63.003906 51.390625 63.003906 L 51.390625 63.800781 L 40.929688 63.800781 L 40.929688 62.992188 C 41.226562 62.992188 41.335938 62.160156 41.246094 60.488281 C 41.15625 58.816406 40.691406 56.726562 39.855469 54.222656 Z M 39.136719 52.074219 " clip-rule="nonzero"/></clipPath><clipPath id="200739cf5a"><rect x="0" width="52" y="0" height="64"/></clipPath><clipPath id="4000d6ccf6"><path d="M 92.6875 64.613281 L 139.160156 64.613281 L 139.160156 128 L 92.6875 128 Z M 92.6875 64.613281 " clip-rule="nonzero"/></clipPath><clipPath id="5fd77ff706"><path d="M 139.050781 65.769531 C 138.929688 65.769531 138.75 65.859375 138.511719 66.039062 C 138.273438 66.214844 138.035156 66.542969 137.796875 67.023438 C 137.558594 67.5 137.367188 68.183594 137.21875 69.082031 C 137.070312 69.976562 137 71.167969 137 72.660156 L 137 120.101562 C 137 121.535156 137.078125 122.707031 137.21875 123.632812 C 137.359375 124.558594 137.558594 125.261719 137.796875 125.730469 C 138.035156 126.199219 138.273438 126.535156 138.511719 126.714844 C 138.75 126.894531 138.929688 126.984375 139.050781 126.984375 L 139.050781 127.800781 L 128.488281 127.800781 L 128.488281 126.992188 C 128.605469 126.992188 128.785156 126.90625 129.023438 126.726562 C 129.261719 126.546875 129.480469 126.21875 129.699219 125.742188 C 129.917969 125.261719 130.097656 124.566406 130.277344 123.640625 C 130.457031 122.71875 130.546875 121.542969 130.546875 120.113281 L 130.546875 90.921875 L 101.097656 90.921875 L 101.097656 120.101562 C 101.097656 121.535156 101.167969 122.707031 101.324219 123.632812 C 101.484375 124.558594 101.664062 125.261719 101.902344 125.730469 C 102.140625 126.199219 102.378906 126.535156 102.617188 126.714844 C 102.855469 126.894531 103.035156 126.984375 103.15625 126.984375 L 103.15625 127.800781 L 92.773438 127.800781 L 92.773438 126.992188 C 92.890625 126.992188 93.070312 126.90625 93.308594 126.726562 C 93.546875 126.546875 93.777344 126.21875 93.984375 125.742188 C 94.195312 125.261719 94.382812 124.566406 94.5625 123.640625 C 94.742188 122.71875 94.832031 121.542969 94.832031 120.113281 L 94.832031 72.660156 C 94.832031 71.167969 94.742188 69.976562 94.5625 69.082031 C 94.382812 68.183594 94.183594 67.5 93.984375 67.023438 C 93.785156 66.542969 93.546875 66.214844 93.308594 66.039062 C 93.070312 65.859375 92.890625 65.769531 92.773438 65.769531 L 92.773438 64.964844 L 103.15625 64.964844 L 103.15625 65.769531 C 103.035156 65.769531 102.855469 65.859375 102.617188 66.039062 C 102.378906 66.214844 102.140625 66.542969 101.902344 67.023438 C 101.664062 67.5 101.464844 68.183594 101.324219 69.082031 C 101.1875 69.976562 101.097656 71.167969 101.097656 72.660156 L 101.097656 90.117188 L 130.546875 90.117188 L 130.546875 72.660156 C 130.546875 71.167969 130.457031 69.976562 130.277344 69.082031 C 130.097656 68.183594 129.898438 67.5 129.699219 67.023438 C 129.5 66.542969 129.261719 66.214844 129.023438 66.039062 C 128.785156 65.859375 128.605469 65.769531 128.488281 65.769531 L 128.488281 64.964844 L 139.050781 64.964844 Z M 139.050781 65.769531 " clip-rule="nonzero"/></clipPath><clipPath id="ac0c7413c6"><path d="M 0.6875 0.925781 L 47.085938 0.925781 L 47.085938 63.941406 L 0.6875 63.941406 Z M 0.6875 0.925781 " clip-rule="nonzero"/></clipPath><clipPath id="814fdf8076"><path d="M 47.050781 1.769531 C 46.929688 1.769531 46.75 1.859375 46.511719 2.039062 C 46.273438 2.214844 46.035156 2.542969 45.796875 3.023438 C 45.558594 3.5 45.367188 4.183594 45.21875 5.082031 C 45.070312 5.976562 45 7.167969 45 8.660156 L 45 56.101562 C 45 57.535156 45.078125 58.707031 45.21875 59.632812 C 45.359375 60.558594 45.558594 61.261719 45.796875 61.730469 C 46.035156 62.199219 46.273438 62.535156 46.511719 62.714844 C 46.75 62.894531 46.929688 62.984375 47.050781 62.984375 L 47.050781 63.800781 L 36.488281 63.800781 L 36.488281 62.992188 C 36.605469 62.992188 36.785156 62.90625 37.023438 62.726562 C 37.261719 62.546875 37.480469 62.21875 37.699219 61.742188 C 37.917969 61.261719 38.097656 60.566406 38.277344 59.640625 C 38.457031 58.71875 38.546875 57.542969 38.546875 56.113281 L 38.546875 26.921875 L 9.097656 26.921875 L 9.097656 56.101562 C 9.097656 57.535156 9.167969 58.707031 9.324219 59.632812 C 9.484375 60.558594 9.664062 61.261719 9.902344 61.730469 C 10.140625 62.199219 10.378906 62.535156 10.617188 62.714844 C 10.855469 62.894531 11.035156 62.984375 11.15625 62.984375 L 11.15625 63.800781 L 0.773438 63.800781 L 0.773438 62.992188 C 0.890625 62.992188 1.070312 62.90625 1.308594 62.726562 C 1.546875 62.546875 1.777344 62.21875 1.984375 61.742188 C 2.195312 61.261719 2.382812 60.566406 2.5625 59.640625 C 2.742188 58.71875 2.832031 57.542969 2.832031 56.113281 L 2.832031 8.660156 C 2.832031 7.167969 2.742188 5.976562 2.5625 5.082031 C 2.382812 4.183594 2.183594 3.5 1.984375 3.023438 C 1.785156 2.542969 1.546875 2.214844 1.308594 2.039062 C 1.070312 1.859375 0.890625 1.769531 0.773438 1.769531 L 0.773438 0.964844 L 11.15625 0.964844 L 11.15625 1.769531 C 11.035156 1.769531 10.855469 1.859375 10.617188 2.039062 C 10.378906 2.214844 10.140625 2.542969 9.902344 3.023438 C 9.664062 3.5 9.464844 4.183594 9.324219 5.082031 C 9.1875 5.976562 9.097656 7.167969 9.097656 8.660156 L 9.097656 26.117188 L 38.546875 26.117188 L 38.546875 8.660156 C 38.546875 7.167969 38.457031 5.976562 38.277344 5.082031 C 38.097656 4.183594 37.898438 3.5 37.699219 3.023438 C 37.5 2.542969 37.261719 2.214844 37.023438 2.039062 C 36.785156 1.859375 36.605469 1.769531 36.488281 1.769531 L 36.488281 0.964844 L 47.050781 0.964844 Z M 47.050781 1.769531 " clip-rule="nonzero"/></clipPath><clipPath id="29edb3db9b"><rect x="0" width="48" y="0" height="64"/></clipPath><clipPath id="904716d603"><path d="M 144.125 64.261719 L 208.332031 64.261719 L 208.332031 128.113281 L 144.125 128.113281 Z M 144.125 64.261719 " clip-rule="nonzero"/></clipPath><clipPath id="b3319b6745"><path d="M 200.53125 89.757812 C 199.636719 86.296875 198.164062 82.925781 196.105469 79.644531 C 194.046875 76.359375 191.601562 73.554688 188.765625 71.230469 C 185.933594 68.902344 182.761719 67.25 179.238281 66.265625 C 175.71875 65.28125 172.046875 65.292969 168.230469 66.304688 C 164.351562 67.320312 161.148438 69.140625 158.613281 71.765625 C 156.074219 74.390625 154.15625 77.414062 152.84375 80.855469 C 151.53125 84.296875 150.816406 87.9375 150.695312 91.816406 C 150.574219 95.695312 150.964844 99.363281 151.859375 102.824219 C 152.8125 106.289062 154.304688 109.648438 156.335938 112.890625 C 158.363281 116.132812 160.808594 118.9375 163.675781 121.265625 C 166.539062 123.59375 169.710938 125.261719 173.203125 126.277344 C 176.691406 127.292969 180.375 127.261719 184.253906 126.1875 C 188.070312 125.175781 191.253906 123.355469 193.789062 120.726562 C 196.324219 118.101562 198.253906 115.078125 199.566406 111.636719 C 200.882812 108.195312 201.605469 104.566406 201.757812 100.71875 C 201.90625 96.867188 201.496094 93.21875 200.554688 89.746094 M 145.484375 104.527344 C 144.351562 100.289062 144.101562 96.082031 144.726562 91.90625 C 145.355469 87.730469 146.675781 83.878906 148.714844 80.359375 C 150.753906 76.839844 153.402344 73.785156 156.683594 71.1875 C 159.964844 68.59375 163.722656 66.722656 167.960938 65.589844 C 172.199219 64.457031 176.40625 64.1875 180.582031 64.785156 C 184.757812 65.378906 188.609375 66.695312 192.128906 68.722656 C 195.648438 70.75 198.714844 73.417969 201.308594 76.730469 C 203.90625 80.039062 205.765625 83.820312 206.898438 88.058594 C 208.03125 92.292969 208.300781 96.492188 207.703125 100.636719 C 207.105469 104.785156 205.792969 108.613281 203.765625 112.136719 C 201.738281 115.65625 199.070312 118.730469 195.757812 121.355469 C 192.445312 123.980469 188.667969 125.859375 184.441406 126.992188 C 180.214844 128.128906 176.007812 128.394531 171.859375 127.800781 C 167.710938 127.203125 163.875 125.871094 160.351562 123.8125 C 156.832031 121.753906 153.757812 119.085938 151.132812 115.804688 C 148.507812 112.523438 146.628906 108.761719 145.492188 104.527344 " clip-rule="nonzero"/></clipPath><clipPath id="ef23b21d40"><path d="M 0.125 0.261719 L 64.308594 0.261719 L 64.308594 64.113281 L 0.125 64.113281 Z M 0.125 0.261719 " clip-rule="nonzero"/></clipPath><clipPath id="51aa630e35"><path d="M 56.53125 25.757812 C 55.636719 22.296875 54.164062 18.925781 52.105469 15.644531 C 50.046875 12.359375 47.601562 9.554688 44.765625 7.230469 C 41.933594 4.902344 38.761719 3.25 35.238281 2.265625 C 31.71875 1.28125 28.046875 1.292969 24.230469 2.304688 C 20.351562 3.320312 17.148438 5.140625 14.613281 7.765625 C 12.074219 10.390625 10.15625 13.414062 8.84375 16.855469 C 7.53125 20.296875 6.816406 23.9375 6.695312 27.816406 C 6.574219 31.695312 6.964844 35.363281 7.859375 38.824219 C 8.8125 42.289062 10.304688 45.648438 12.335938 48.890625 C 14.363281 52.132812 16.808594 54.9375 19.675781 57.265625 C 22.539062 59.59375 25.710938 61.261719 29.203125 62.277344 C 32.691406 63.292969 36.375 63.261719 40.253906 62.1875 C 44.070312 61.175781 47.253906 59.355469 49.789062 56.726562 C 52.324219 54.101562 54.253906 51.078125 55.566406 47.636719 C 56.882812 44.195312 57.605469 40.566406 57.757812 36.71875 C 57.90625 32.867188 57.496094 29.21875 56.554688 25.746094 M 1.484375 40.527344 C 0.351562 36.289062 0.101562 32.082031 0.726562 27.90625 C 1.355469 23.730469 2.675781 19.878906 4.714844 16.359375 C 6.753906 12.839844 9.402344 9.785156 12.683594 7.1875 C 15.964844 4.59375 19.722656 2.722656 23.960938 1.589844 C 28.199219 0.457031 32.40625 0.1875 36.582031 0.785156 C 40.757812 1.378906 44.609375 2.695312 48.128906 4.722656 C 51.648438 6.75 54.714844 9.417969 57.308594 12.730469 C 59.90625 16.039062 61.765625 19.820312 62.898438 24.058594 C 64.03125 28.292969 64.300781 32.492188 63.703125 36.636719 C 63.105469 40.785156 61.792969 44.613281 59.765625 48.136719 C 57.738281 51.65625 55.070312 54.730469 51.757812 57.355469 C 48.445312 59.980469 44.667969 61.859375 40.441406 62.992188 C 36.214844 64.128906 32.007812 64.394531 27.859375 63.800781 C 23.710938 63.203125 19.875 61.871094 16.351562 59.8125 C 12.832031 57.753906 9.757812 55.085938 7.132812 51.804688 C 4.507812 48.523438 2.628906 44.761719 1.492188 40.527344 " clip-rule="nonzero"/></clipPath><clipPath id="cbe63377d5"><rect x="0" width="65" y="0" height="65"/></clipPath><clipPath id="7a6a1f36de"><path d="M 213.296875 64.613281 L 264.378906 64.613281 L 264.378906 128 L 213.296875 128 Z M 213.296875 64.613281 " clip-rule="nonzero"/></clipPath><clipPath id="03316337a0"><path d="M 256.644531 64.964844 L 264.253906 64.964844 L 264.253906 65.769531 C 263.898438 65.769531 263.480469 65.9375 263 66.265625 C 262.523438 66.59375 261.988281 67.160156 261.390625 67.964844 C 260.792969 68.773438 260.167969 69.835938 259.511719 71.140625 C 258.855469 72.441406 258.199219 74.121094 257.542969 76.152344 L 241.527344 122.785156 L 243.230469 127.800781 L 236.515625 127.800781 L 219.417969 77.941406 C 218.824219 76.269531 218.234375 74.691406 217.667969 73.199219 C 217.101562 71.707031 216.566406 70.414062 216.058594 69.308594 C 215.550781 68.207031 215.074219 67.339844 214.625 66.714844 C 214.179688 66.085938 213.78125 65.777344 213.421875 65.777344 L 213.421875 64.972656 L 223.984375 64.972656 L 223.984375 65.777344 C 223.625 65.777344 223.507812 66.605469 223.625 68.246094 C 223.746094 69.886719 224.195312 71.964844 224.96875 74.460938 L 241.171875 121.632812 L 256.746094 75.984375 C 259.074219 69.179688 259.042969 65.777344 256.65625 65.777344 Z M 256.644531 64.964844 " clip-rule="nonzero"/></clipPath><clipPath id="4767e8082d"><path d="M 0.320312 0.925781 L 51.378906 0.925781 L 51.378906 63.941406 L 0.320312 63.941406 Z M 0.320312 0.925781 " clip-rule="nonzero"/></clipPath><clipPath id="a930c1543e"><path d="M 43.644531 0.964844 L 51.253906 0.964844 L 51.253906 1.769531 C 50.898438 1.769531 50.480469 1.9375 50 2.265625 C 49.523438 2.59375 48.988281 3.160156 48.390625 3.964844 C 47.792969 4.773438 47.167969 5.835938 46.511719 7.140625 C 45.855469 8.441406 45.199219 10.121094 44.542969 12.152344 L 28.527344 58.785156 L 30.230469 63.800781 L 23.515625 63.800781 L 6.417969 13.941406 C 5.824219 12.269531 5.234375 10.691406 4.667969 9.199219 C 4.101562 7.707031 3.566406 6.414062 3.058594 5.308594 C 2.550781 4.207031 2.074219 3.339844 1.625 2.714844 C 1.179688 2.085938 0.78125 1.777344 0.421875 1.777344 L 0.421875 0.972656 L 10.984375 0.972656 L 10.984375 1.777344 C 10.625 1.777344 10.507812 2.605469 10.625 4.246094 C 10.746094 5.886719 11.195312 7.964844 11.96875 10.460938 L 28.171875 57.632812 L 43.746094 11.984375 C 46.074219 5.179688 46.042969 1.777344 43.65625 1.777344 Z M 43.644531 0.964844 " clip-rule="nonzero"/></clipPath><clipPath id="4321827165"><rect x="0" width="52" y="0" height="64"/></clipPath><clipPath id="d9d4d47340"><path d="M 262 47.234375 L 288 47.234375 L 288 128 L 262 128 Z M 262 47.234375 " clip-rule="nonzero"/></clipPath><clipPath id="c5ea459855"><path d="M 283.769531 47.238281 C 284.902344 47.238281 285.855469 47.628906 286.632812 48.402344 C 287.410156 49.179688 287.796875 50.105469 287.796875 51.179688 C 287.796875 52.253906 287.410156 53.15625 286.632812 53.902344 C 285.855469 54.648438 284.902344 55.027344 283.769531 55.027344 C 282.695312 55.027344 281.757812 54.648438 280.953125 53.902344 C 280.148438 53.15625 279.738281 52.253906 279.738281 51.179688 C 279.738281 50.105469 280.148438 49.179688 280.953125 48.402344 C 281.757812 47.628906 282.695312 47.238281 283.769531 47.238281 M 280.097656 65.769531 C 279.917969 65.769531 279.710938 65.859375 279.472656 66.039062 C 279.234375 66.214844 279.015625 66.542969 278.804688 67.023438 C 278.597656 67.5 278.40625 68.183594 278.226562 69.082031 C 278.050781 69.976562 277.960938 71.167969 277.960938 72.660156 L 277.960938 120.101562 C 277.960938 121.535156 278.050781 122.707031 278.226562 123.640625 C 278.40625 124.578125 278.597656 125.261719 278.804688 125.742188 C 279.015625 126.21875 279.234375 126.546875 279.472656 126.726562 C 279.710938 126.90625 279.917969 126.992188 280.097656 126.992188 L 280.097656 127.800781 L 269.625 127.800781 L 269.625 126.992188 C 269.746094 126.992188 269.921875 126.90625 270.164062 126.726562 C 270.402344 126.546875 270.621094 126.21875 270.839844 125.742188 C 271.058594 125.261719 271.238281 124.566406 271.414062 123.640625 C 271.59375 122.71875 271.683594 121.535156 271.683594 120.101562 L 271.683594 72.660156 C 271.683594 71.167969 271.59375 69.976562 271.414062 69.082031 C 271.238281 68.183594 271.039062 67.5 270.839844 67.023438 C 270.640625 66.542969 270.402344 66.214844 270.164062 66.039062 C 269.921875 65.859375 269.746094 65.769531 269.625 65.769531 L 269.625 64.964844 L 280.097656 64.964844 Z M 266.046875 47.238281 C 267.179688 47.238281 268.132812 47.628906 268.910156 48.402344 C 269.683594 49.179688 270.074219 50.105469 270.074219 51.179688 C 270.074219 52.253906 269.683594 53.15625 268.910156 53.902344 C 268.132812 54.648438 267.179688 55.027344 266.046875 55.027344 C 264.972656 55.027344 264.027344 54.648438 263.230469 53.902344 C 262.433594 53.15625 262.027344 52.253906 262.027344 51.179688 C 262.027344 50.105469 262.425781 49.179688 263.230469 48.402344 C 264.035156 47.628906 264.972656 47.238281 266.046875 47.238281 " clip-rule="nonzero"/></clipPath><clipPath id="4a07d2dda6"><path d="M 0.0117188 0.234375 L 26 0.234375 L 26 80.941406 L 0.0117188 80.941406 Z M 0.0117188 0.234375 " clip-rule="nonzero"/></clipPath><clipPath id="0e0b612e85"><path d="M 21.769531 0.238281 C 22.902344 0.238281 23.855469 0.628906 24.632812 1.402344 C 25.410156 2.179688 25.796875 3.105469 25.796875 4.179688 C 25.796875 5.253906 25.410156 6.15625 24.632812 6.902344 C 23.855469 7.648438 22.902344 8.027344 21.769531 8.027344 C 20.695312 8.027344 19.757812 7.648438 18.953125 6.902344 C 18.148438 6.15625 17.738281 5.253906 17.738281 4.179688 C 17.738281 3.105469 18.148438 2.179688 18.953125 1.402344 C 19.757812 0.628906 20.695312 0.238281 21.769531 0.238281 M 18.097656 18.769531 C 17.917969 18.769531 17.710938 18.859375 17.472656 19.039062 C 17.234375 19.214844 17.015625 19.542969 16.804688 20.023438 C 16.597656 20.5 16.40625 21.183594 16.226562 22.082031 C 16.050781 22.976562 15.960938 24.167969 15.960938 25.660156 L 15.960938 73.101562 C 15.960938 74.535156 16.050781 75.707031 16.226562 76.640625 C 16.40625 77.578125 16.597656 78.261719 16.804688 78.742188 C 17.015625 79.21875 17.234375 79.546875 17.472656 79.726562 C 17.710938 79.90625 17.917969 79.992188 18.097656 79.992188 L 18.097656 80.800781 L 7.625 80.800781 L 7.625 79.992188 C 7.746094 79.992188 7.921875 79.90625 8.164062 79.726562 C 8.402344 79.546875 8.621094 79.21875 8.839844 78.742188 C 9.058594 78.261719 9.238281 77.566406 9.414062 76.640625 C 9.59375 75.71875 9.683594 74.535156 9.683594 73.101562 L 9.683594 25.660156 C 9.683594 24.167969 9.59375 22.976562 9.414062 22.082031 C 9.238281 21.183594 9.039062 20.5 8.839844 20.023438 C 8.640625 19.542969 8.402344 19.214844 8.164062 19.039062 C 7.921875 18.859375 7.746094 18.769531 7.625 18.769531 L 7.625 17.964844 L 18.097656 17.964844 Z M 4.046875 0.238281 C 5.179688 0.238281 6.132812 0.628906 6.910156 1.402344 C 7.683594 2.179688 8.074219 3.105469 8.074219 4.179688 C 8.074219 5.253906 7.683594 6.15625 6.910156 6.902344 C 6.132812 7.648438 5.179688 8.027344 4.046875 8.027344 C 2.972656 8.027344 2.027344 7.648438 1.230469 6.902344 C 0.433594 6.15625 0.0273438 5.253906 0.0273438 4.179688 C 0.0273438 3.105469 0.425781 2.179688 1.230469 1.402344 C 2.035156 0.628906 2.972656 0.238281 4.046875 0.238281 " clip-rule="nonzero"/></clipPath><clipPath id="8699ccf760"><rect x="0" width="26" y="0" height="81"/></clipPath></defs><g clip-path="url(#dcd2a23dd5)"><g clip-path="url(#17091ae8e1)"><g transform="matrix(1, 0, 0, 1, 153, 47)"><g clip-path="url(#9356311b2e)"><g clip-path="url(#b930b5404f)"><g clip-path="url(#d9adc2beb2)"><rect x="-224.28" width="466.56" fill="#0097b2" height="263.520001" y="-87.26" fill-opacity="1"/></g></g></g></g></g></g><g clip-path="url(#6356af338c)"><g clip-path="url(#41be92a786)"><g transform="matrix(1, 0, 0, 1, 148, 29)"><g clip-path="url(#cc55d7d967)"><g clip-path="url(#e1ad2e4178)"><g clip-path="url(#6cb1a98fe0)"><rect x="-219.28" width="466.56" fill="#0097b2" height="263.520001" y="-69.26" fill-opacity="1"/></g></g></g></g></g></g><g clip-path="url(#25353982d8)"><g clip-path="url(#ac60b7bcc8)"><g transform="matrix(1, 0, 0, 1, 163, 32)"><g clip-path="url(#04450389b2)"><g clip-path="url(#7f02ade13e)"><g clip-path="url(#5c4277a20b)"><rect x="-234.28" width="466.56" fill="#0097b2" height="263.520001" y="-72.26" fill-opacity="1"/></g></g></g></g></g></g><g clip-path="url(#03879c0a8c)"><g clip-path="url(#944fb7132b)"><g transform="matrix(1, 0, 0, 1, 151, 34)"><g clip-path="url(#454d22c01c)"><g clip-path="url(#581724877a)"><g clip-path="url(#bdfa5211b1)"><rect x="-222.28" width="466.56" fill="#0097b2" height="263.520001" y="-74.26" fill-opacity="1"/></g></g></g></g></g></g><g clip-path="url(#c14893a500)"><g clip-path="url(#5114d6041e)"><g transform="matrix(1, 0, 0, 1, 177, 32)"><g clip-path="url(#62d2e6398f)"><g clip-path="url(#023e61fec8)"><g clip-path="url(#8d0e2e49f7)"><rect x="-248.28" width="466.56" fill="#0097b2" height="263.520001" y="-72.26" fill-opacity="1"/></g></g></g></g></g></g><g clip-path="url(#4ea8de4f2b)"><g clip-path="url(#eeb1f7365a)"><g transform="matrix(1, 0, 0, 1, 190, 34)"><g clip-path="url(#0f86df273c)"><g clip-path="url(#e3eab4f946)"><g clip-path="url(#e2e7a85436)"><rect x="-261.28" width="466.56" fill="#0097b2" height="263.520001" y="-74.26" fill-opacity="1"/></g></g></g></g></g></g><g clip-path="url(#9d5ba3e339)"><g clip-path="url(#aa34826cd2)"><g transform="matrix(1, 0, 0, 1, 174, 24)"><g clip-path="url(#9724f87509)"><g clip-path="url(#0cbd9bc52d)"><g clip-path="url(#ea584a53b1)"><rect x="-245.28" width="466.56" fill="#0097b2" height="263.520001" y="-64.26" fill-opacity="1"/></g></g></g></g></g></g><g clip-path="url(#bdb9f412b5)"><g clip-path="url(#4971ab6542)"><g transform="matrix(1, 0, 0, 1, 159, 25)"><g clip-path="url(#5379140ef1)"><g clip-path="url(#8f5d7b912b)"><g clip-path="url(#c0edf101dd)"><rect x="-230.28" width="466.56" fill="#0097b2" height="263.520001" y="-65.26" fill-opacity="1"/></g></g></g></g></g></g><g clip-path="url(#d0b6483078)"><g clip-path="url(#2de7855f83)"><g transform="matrix(1, 0, 0, 1, 145, 33)"><g clip-path="url(#dbe5454aca)"><g clip-path="url(#c02ca98d86)"><g clip-path="url(#9c71a63517)"><rect x="-216.28" width="466.56" fill="#0097b2" height="263.520001" y="-73.26" fill-opacity="1"/></g></g></g></g></g></g><g clip-path="url(#8cd520764f)"><g clip-path="url(#23a8c2faa0)"><g transform="matrix(1, 0, 0, 1, 189, 26)"><g clip-path="url(#2c95173343)"><g clip-path="url(#8f2e6c2877)"><g clip-path="url(#8b8b24185a)"><rect x="-260.28" width="466.56" fill="#0097b2" height="263.520001" y="-66.26" fill-opacity="1"/></g></g></g></g></g></g><g clip-path="url(#c196a3b009)"><g clip-path="url(#5e9390c791)"><g transform="matrix(1, 0, 0, 1, 201, 33)"><g clip-path="url(#6b371c35ed)"><g clip-path="url(#8d4f83c932)"><g clip-path="url(#9eb5d9f072)"><rect x="-272.28" width="466.56" fill="#0097b2" height="263.520001" y="-73.26" fill-opacity="1"/></g></g></g></g></g></g><g clip-path="url(#084399e47f)"><g clip-path="url(#711e95c795)"><g transform="matrix(1, 0, 0, 1, 36, 64)"><g clip-path="url(#200739cf5a)"><g clip-path="url(#2b995e7183)"><g clip-path="url(#e20571167e)"><rect x="-107.28" width="466.56" fill="#000000" height="263.520001" y="-104.26" fill-opacity="1"/></g></g></g></g></g></g><g clip-path="url(#4000d6ccf6)"><g clip-path="url(#5fd77ff706)"><g transform="matrix(1, 0, 0, 1, 92, 64)"><g clip-path="url(#29edb3db9b)"><g clip-path="url(#ac0c7413c6)"><g clip-path="url(#814fdf8076)"><rect x="-163.28" width="466.56" fill="#000000" height="263.520001" y="-104.26" fill-opacity="1"/></g></g></g></g></g></g><g clip-path="url(#904716d603)"><g clip-path="url(#b3319b6745)"><g transform="matrix(1, 0, 0, 1, 144, 64)"><g clip-path="url(#cbe63377d5)"><g clip-path="url(#ef23b21d40)"><g clip-path="url(#51aa630e35)"><rect x="-215.28" width="466.56" fill="#000000" height="263.520001" y="-104.26" fill-opacity="1"/></g></g></g></g></g></g><g clip-path="url(#7a6a1f36de)"><g clip-path="url(#03316337a0)"><g transform="matrix(1, 0, 0, 1, 213, 64)"><g clip-path="url(#4321827165)"><g clip-path="url(#4767e8082d)"><g clip-path="url(#a930c1543e)"><rect x="-284.28" width="466.56" fill="#000000" height="263.520001" y="-104.26" fill-opacity="1"/></g></g></g></g></g></g><g clip-path="url(#d9d4d47340)"><g clip-path="url(#c5ea459855)"><g transform="matrix(1, 0, 0, 1, 262, 47)"><g clip-path="url(#8699ccf760)"><g clip-path="url(#4a07d2dda6)"><g clip-path="url(#0e0b612e85)"><rect x="-333.28" width="466.56" fill="#000000" height="263.520001" y="-87.26" fill-opacity="1"/></g></g></g></g></g></g></svg>